<?xml version="1.0" standalone="no"?>
<!DOCTYPE svg PUBLIC "-//W3C//DTD SVG 20010904//EN"
 "http://www.w3.org/TR/2001/REC-SVG-20010904/DTD/svg10.dtd">
<svg version="1.0" xmlns="http://www.w3.org/2000/svg"
 width="256.000000pt" height="256.000000pt" viewBox="0 0 256.000000 256.000000"
 preserveAspectRatio="xMidYMid meet">

<g transform="translate(0.000000,256.000000) scale(0.100000,-0.100000)"
fill="#000000" stroke="none">
<path d="M1168 1879 c-60 -10 -120 -25 -135 -33 -16 -8 -74 -61 -131 -118 -87
-89 -102 -108 -101 -133 5 -63 -30 -96 -83 -79 -25 8 -78 -40 -78 -72 0 -25
106 -134 131 -134 8 0 28 14 44 30 23 24 29 39 27 64 -4 43 19 66 66 66 34 0
46 9 122 85 82 82 84 86 81 128 -3 52 2 57 124 122 50 26 92 50 94 51 7 6 -31
44 -43 43 -6 0 -59 -9 -118 -20z"/>
<path d="M1615 1881 c-126 -31 -196 -151 -165 -281 l12 -52 -38 -39 -38 -39
49 -50 c27 -28 54 -50 59 -50 6 0 26 16 46 35 33 32 38 34 70 25 19 -6 54 -10
78 -10 116 0 221 104 222 220 l0 44 -58 -57 c-47 -46 -70 -61 -113 -72 l-54
-15 -59 59 -58 58 13 57 c10 48 20 64 71 112 32 30 58 57 58 60 0 6 -61 3 -95
-5z"/>
<path d="M1098 1490 c-32 -33 -58 -63 -58 -67 0 -17 758 -763 775 -763 10 0
40 22 67 49 36 36 47 53 42 67 -6 18 -754 775 -764 773 -3 0 -31 -27 -62 -59z"/>
<path d="M1045 1130 c-56 -60 -58 -61 -99 -55 -101 16 -203 -53 -224 -150 -16
-77 1 -136 55 -187 81 -78 198 -76 281 5 41 40 65 116 53 169 -8 35 -7 38 55
99 l64 63 -57 58 c-32 32 -60 58 -64 58 -3 0 -32 -27 -64 -60z m-59 -156 c43
-29 57 -100 29 -153 -8 -16 -31 -36 -51 -46 -47 -22 -101 -8 -138 36 -68 80 5
202 109 182 16 -3 39 -12 51 -19z"/>
</g>
</svg>
